<svg viewBox="0 0 297.75 45.56" xmlns="http://www.w3.org/2000/svg" xmlns:xlink="http://www.w3.org/1999/xlink"><linearGradient id="a" gradientUnits="userSpaceOnUse" x1="11.96" x2="46.45" y1="44.86" y2="4.26"><stop offset="0" stop-color="#30b8f2"/><stop offset="1" stop-color="#a84af3"/></linearGradient><g transform="translate(-4.06 -4.57)"><g fill="#100836"><path d="m69.58 33.44 2.06-1.21a6.29 6.29 0 0 0 6.44 4.29c3.09 0 4.49-1.24 4.49-3a2.51 2.51 0 0 0 -1.32-2.29 19.47 19.47 0 0 0 -4.73-1.8 18.06 18.06 0 0 1 -5.8-2.6 6.76 6.76 0 0 1 -2.64-5.76 7.44 7.44 0 0 1 2.68-6 9.82 9.82 0 0 1 6.52-2.28 10.71 10.71 0 0 1 7.71 3 3.15 3.15 0 0 1 -.65 5l-1.69 1a5.61 5.61 0 0 0 -5.37-3.6c-2.28 0-3.68 1.16-3.68 2.8a2.62 2.62 0 0 0 1.08 2.16 17.1 17.1 0 0 0 4.24 1.76l1.93.64a16.34 16.34 0 0 1 1.8.68 8.08 8.08 0 0 1 1.76.84 8.2 8.2 0 0 1 2.64 2.48 7.62 7.62 0 0 1 1 4 7.5 7.5 0 0 1 -2.84 6.16 11.29 11.29 0 0 1 -7.33 2.28c-4 0-7.15-1.37-9.17-3.75a3.14 3.14 0 0 1 .87-4.8z"/><path d="m118.63 13.34-9.63 17.09v10.93h-5.49v-10.93l-9.51-17.09h4.3a3.2 3.2 0 0 1 2.84 1.72l5.18 10 6.09-11.69z"/><path d="m143.53 13.34h5.52v28h-4.2l-12-17.13v14.2a2.93 2.93 0 0 1 -2.93 2.93h-2.59v-28h4.2l12 17.09z"/><path d="m178.8 16.37v2.26h-7.57v22.73h-5.52v-22.73h-7.53v-5.29h17.59a3 3 0 0 1 3.03 3.03z"/><path d="m193.41 36.08h11.81v5.28h-17.33v-25a3 3 0 0 1 3-3h14.11v5.29h-11.59v6h10.59v5.2h-10.59z"/><path d="m220.63 36.08h10.69v5.28h-13.11a3.1 3.1 0 0 1 -3.1-3.1v-24.92h5.52z"/><path d="m246 36.08h10.68v5.28h-13.17a3.07 3.07 0 0 1 -3.07-3.07v-24.95h5.56z"/><path d="m265.78 13.34h2.43a3.1 3.1 0 0 1 3.1 3.1v24.92h-5.53z"/><path d="m283.29 33.44 2.07-1.21a6.29 6.29 0 0 0 6.44 4.29c3.08 0 4.48-1.24 4.48-3a2.51 2.51 0 0 0 -1.28-2.25 19.35 19.35 0 0 0 -4.72-1.8 18.06 18.06 0 0 1 -5.8-2.6 6.74 6.74 0 0 1 -2.65-5.76 7.42 7.42 0 0 1 2.69-6 9.82 9.82 0 0 1 6.48-2.33 10.71 10.71 0 0 1 7.71 3 3.15 3.15 0 0 1 -.65 5l-1.7 1a5.6 5.6 0 0 0 -5.36-3.6c-2.28 0-3.68 1.16-3.68 2.8a2.62 2.62 0 0 0 1.08 2.16 17.1 17.1 0 0 0 4.24 1.76l1.92.64a16.34 16.34 0 0 1 1.8.68 9.13 9.13 0 0 1 4.41 3.32 7.62 7.62 0 0 1 1 4 7.5 7.5 0 0 1 -2.77 6.1 11.33 11.33 0 0 1 -7.33 2.28c-4 0-7.15-1.37-9.17-3.75a3.14 3.14 0 0 1 .79-4.73z"/></g><path d="m47.87 6.16-.16-.16a5.69 5.69 0 1 0 -3.78 9.93 5.74 5.74 0 0 0 3.81-1.45l.1-.1a5.68 5.68 0 0 0 0-8.21zm-15.35 21.19a5.67 5.67 0 0 1 -1.76 4.12l-.1.09s0 0 0 0a5.69 5.69 0 1 1 0-8.48 1.14 1.14 0 0 0 .16.15 5.7 5.7 0 0 1 1.7 4.12zm0-17.09a5.63 5.63 0 0 1 -1.76 4.11l-.1.1a5.69 5.69 0 1 1 0-8.48l.16.15a5.67 5.67 0 0 1 1.7 4.12zm-1.74 30.09-.16-.15a5.69 5.69 0 0 0 -7.88.3 2.91 2.91 0 0 1 -.33.37c-.14.14-.27.29-.42.43a4.5 4.5 0 0 1 -.66.45 5.34 5.34 0 0 1 -.75.39 5.7 5.7 0 0 1 -5.19-.34c-1-.59-1.59-1.55-2.53-2.15a5.68 5.68 0 1 0 -3.1 10.45 5.48 5.48 0 0 0 3.9-1.56 7.53 7.53 0 0 1 2-1.74 5.71 5.71 0 0 1 2.62-.65 5.19 5.19 0 0 1 3.17 1 25.27 25.27 0 0 0 2.4 2.12 5.69 5.69 0 0 0 6.78-.62l.1-.09a5.69 5.69 0 0 0 0-8.21zm-21.04-7.35a5.68 5.68 0 0 1 -4.11-1.76l-.09-.1s0 0 0 0a5.7 5.7 0 0 1 -.62-6.79 25.16 25.16 0 0 1 2.08-2.35 5.22 5.22 0 0 0 1-3.2 5.71 5.71 0 0 0 -.65-2.62 7.69 7.69 0 0 0 -1.74-2 5.46 5.46 0 0 1 -1.56-3.89 5.69 5.69 0 1 1 10.45 3.1c-.6.93-1.56 1.56-2.15 2.52a5.58 5.58 0 0 0 -.78 3.5 5.94 5.94 0 0 0 .83 2.45 5.91 5.91 0 0 0 .45.66l.43.41a3.87 3.87 0 0 0 .37.32 5.7 5.7 0 0 1 1.74 4.1 5.63 5.63 0 0 1 -1.39 3.78l-.15.16a5.64 5.64 0 0 1 -4.11 1.71zm34.19 17.13a5.67 5.67 0 0 1 -4.11-1.76l-.1-.1a5.66 5.66 0 0 1 -.61-6.78 26.63 26.63 0 0 1 2.11-2.4 5.2 5.2 0 0 0 1-3.17 5.68 5.68 0 0 0 -.65-2.62 7.53 7.53 0 0 0 -1.74-2 5.51 5.51 0 0 1 -1.57-3.9 5.69 5.69 0 1 1 10.46 3.1c-.61.93-1.56 1.57-2.16 2.53a5.63 5.63 0 0 0 -.77 3.5 5.53 5.53 0 0 0 .43 1.69 6.72 6.72 0 0 0 .4.75 3.34 3.34 0 0 0 .45.66c.14.15.29.28.43.42.12.12.25.22.37.33a5.67 5.67 0 0 1 .31 7.87l-.15.16a5.65 5.65 0 0 1 -4.1 1.72z" fill="url(#a)"/></g></svg>